<?xml version="1.0" encoding="utf-8"?>
<!-- Generator: Adobe Illustrator 25.2.3, SVG Export Plug-In . SVG Version: 6.00 Build 0)  -->
<!DOCTYPE svg PUBLIC "-//W3C//DTD SVG 1.1//EN" "http://www.w3.org/Graphics/SVG/1.1/DTD/svg11.dtd" [
	<!ENTITY ns_extend "http://ns.adobe.com/Extensibility/1.0/">
	<!ENTITY ns_ai "http://ns.adobe.com/AdobeIllustrator/10.0/">
	<!ENTITY ns_graphs "http://ns.adobe.com/Graphs/1.0/">
	<!ENTITY ns_vars "http://ns.adobe.com/Variables/1.0/">
	<!ENTITY ns_imrep "http://ns.adobe.com/ImageReplacement/1.0/">
	<!ENTITY ns_sfw "http://ns.adobe.com/SaveForWeb/1.0/">
	<!ENTITY ns_custom "http://ns.adobe.com/GenericCustomNamespace/1.0/">
	<!ENTITY ns_adobe_xpath "http://ns.adobe.com/XPath/1.0/">
]>
<svg version="1.1" id="Layer_1" xmlns:x="&ns_extend;" xmlns:i="&ns_ai;" xmlns:graph="&ns_graphs;"
	 xmlns="http://www.w3.org/2000/svg" xmlns:xlink="http://www.w3.org/1999/xlink" x="0px" y="0px" width="253.323px"
	 height="41.52px" viewBox="0 0 253.323 41.52" style="enable-background:new 0 0 253.323 41.52;" xml:space="preserve">
<style type="text/css">
	.st0{fill:#E41312;}
</style>
<metadata>
	<sfw  xmlns="&ns_sfw;">
		<slices></slices>
		<sliceSourceBounds  bottomLeftOrigin="true" height="41.52" width="253.104" x="119" y="229.48"></sliceSourceBounds>
	</sfw>
</metadata>
<g>
	<path d="M58.985,13.208c0.679,0,1.298,0.06,1.857,0.18c0.559,0.12,1.038,0.316,1.438,0.589s0.709,0.636,0.929,1.088
		s0.33,1.012,0.33,1.677c0,0.719-0.163,1.318-0.489,1.797c-0.326,0.479-0.809,0.872-1.448,1.178
		c0.878,0.253,1.534,0.696,1.967,1.328c0.433,0.633,0.649,1.395,0.649,2.286c0,0.72-0.14,1.342-0.419,1.867
		c-0.28,0.526-0.656,0.956-1.128,1.288c-0.473,0.333-1.012,0.579-1.618,0.739c-0.606,0.159-1.228,0.239-1.867,0.239h-6.909V13.208
		H58.985z M58.585,18.979c0.56,0,1.019-0.133,1.378-0.399s0.54-0.699,0.54-1.298c0-0.333-0.06-0.605-0.18-0.818
		c-0.12-0.213-0.279-0.379-0.479-0.5c-0.2-0.12-0.429-0.203-0.689-0.25c-0.26-0.046-0.529-0.07-0.809-0.07h-2.936v3.335H58.585z
		 M58.766,25.03c0.306,0,0.599-0.03,0.878-0.091c0.28-0.06,0.526-0.159,0.739-0.299s0.383-0.33,0.509-0.569s0.19-0.546,0.19-0.919
		c0-0.731-0.207-1.254-0.619-1.567c-0.413-0.312-0.958-0.469-1.638-0.469h-3.415v3.914H58.766z"/>
	<path d="M68.331,17.142v1.917h0.04c0.133-0.319,0.313-0.616,0.54-0.889c0.226-0.272,0.486-0.506,0.779-0.699
		c0.292-0.193,0.605-0.343,0.938-0.449c0.333-0.106,0.679-0.16,1.038-0.16c0.187,0,0.393,0.033,0.619,0.1v2.636
		c-0.133-0.026-0.293-0.05-0.479-0.07c-0.187-0.02-0.367-0.03-0.54-0.03c-0.519,0-0.958,0.087-1.318,0.26s-0.649,0.409-0.869,0.709
		c-0.22,0.299-0.376,0.649-0.469,1.048s-0.14,0.832-0.14,1.298v4.652h-2.836V17.142H68.331z"/>
	<path d="M73.083,15.544v-2.336h2.835v2.336H73.083z M75.918,17.142v10.324h-2.835V17.142H75.918z"/>
	<path d="M83.427,17.142v1.897h-2.077v5.112c0,0.479,0.08,0.799,0.24,0.958c0.16,0.16,0.479,0.24,0.958,0.24
		c0.16,0,0.312-0.007,0.459-0.021c0.146-0.013,0.286-0.033,0.419-0.06v2.196c-0.239,0.04-0.506,0.066-0.799,0.08
		c-0.293,0.013-0.579,0.02-0.858,0.02c-0.439,0-0.855-0.029-1.248-0.09c-0.393-0.06-0.739-0.176-1.039-0.349
		c-0.299-0.173-0.536-0.42-0.709-0.739s-0.259-0.739-0.259-1.258v-6.091h-1.718v-1.897h1.718v-3.095h2.835v3.095H83.427z"/>
	<path d="M84.465,15.544v-2.336h2.835v2.336H84.465z M87.301,17.142v10.324h-2.835V17.142H87.301z"/>
	<path d="M91.524,24.9c0.126,0.22,0.29,0.399,0.489,0.539s0.429,0.243,0.689,0.31c0.259,0.066,0.529,0.1,0.809,0.1
		c0.2,0,0.409-0.023,0.629-0.07c0.22-0.046,0.419-0.119,0.599-0.22c0.18-0.1,0.33-0.232,0.449-0.399
		c0.12-0.166,0.18-0.376,0.18-0.629c0-0.426-0.283-0.745-0.849-0.958s-1.354-0.426-2.366-0.64c-0.413-0.093-0.815-0.202-1.208-0.329
		c-0.393-0.126-0.743-0.293-1.048-0.499c-0.307-0.206-0.553-0.466-0.739-0.779c-0.187-0.312-0.279-0.695-0.279-1.147
		c0-0.666,0.13-1.211,0.389-1.638c0.26-0.426,0.603-0.762,1.028-1.008c0.426-0.247,0.905-0.419,1.438-0.52
		c0.532-0.1,1.079-0.149,1.638-0.149s1.101,0.053,1.627,0.16c0.526,0.106,0.995,0.286,1.408,0.539s0.755,0.589,1.028,1.008
		s0.436,0.949,0.489,1.588h-2.696c-0.04-0.546-0.247-0.916-0.619-1.108s-0.812-0.29-1.318-0.29c-0.16,0-0.333,0.01-0.519,0.03
		c-0.187,0.02-0.356,0.063-0.509,0.13c-0.153,0.067-0.283,0.163-0.39,0.29s-0.16,0.296-0.16,0.509c0,0.253,0.093,0.459,0.28,0.619
		c0.186,0.16,0.429,0.29,0.729,0.389c0.299,0.1,0.642,0.19,1.028,0.27c0.386,0.08,0.779,0.167,1.178,0.26
		c0.412,0.093,0.815,0.206,1.208,0.339c0.393,0.134,0.742,0.31,1.048,0.529s0.552,0.493,0.739,0.819s0.28,0.729,0.28,1.208
		c0,0.679-0.137,1.248-0.41,1.707s-0.629,0.829-1.068,1.108c-0.439,0.279-0.942,0.477-1.507,0.589
		c-0.566,0.113-1.142,0.17-1.728,0.17c-0.599,0-1.185-0.06-1.757-0.18c-0.573-0.12-1.082-0.319-1.528-0.599
		c-0.446-0.28-0.812-0.649-1.098-1.108c-0.287-0.46-0.443-1.035-0.469-1.728h2.696C91.334,24.418,91.397,24.681,91.524,24.9z"/>
	<path d="M102.298,13.208v5.372h0.06c0.359-0.599,0.818-1.035,1.377-1.308c0.56-0.273,1.105-0.409,1.638-0.409
		c0.759,0,1.381,0.103,1.867,0.309c0.486,0.207,0.869,0.493,1.148,0.859c0.279,0.366,0.476,0.812,0.589,1.338
		c0.113,0.526,0.17,1.108,0.17,1.748v6.35h-2.836v-5.831c0-0.852-0.133-1.487-0.399-1.907s-0.739-0.629-1.417-0.629
		c-0.772,0-1.332,0.229-1.678,0.689s-0.519,1.215-0.519,2.267v5.411h-2.836V13.208H102.298z"/>
	<path d="M118.892,13.208c0.639,0,1.215,0.104,1.728,0.31c0.512,0.207,0.952,0.489,1.318,0.849c0.366,0.36,0.646,0.776,0.839,1.248
		c0.193,0.473,0.29,0.982,0.29,1.528c0,0.839-0.177,1.564-0.529,2.177c-0.353,0.612-0.929,1.078-1.728,1.398v0.04
		c0.386,0.106,0.706,0.27,0.959,0.489c0.252,0.219,0.459,0.479,0.619,0.778c0.16,0.3,0.276,0.629,0.35,0.988s0.123,0.719,0.15,1.078
		c0.013,0.227,0.026,0.493,0.04,0.799c0.013,0.307,0.036,0.619,0.07,0.938c0.033,0.32,0.086,0.623,0.16,0.909
		c0.073,0.286,0.183,0.529,0.33,0.729h-3.135c-0.173-0.452-0.28-0.991-0.32-1.617c-0.04-0.626-0.1-1.225-0.18-1.797
		c-0.106-0.746-0.333-1.292-0.679-1.638c-0.346-0.347-0.912-0.52-1.697-0.52h-3.135v5.571h-3.135V13.208H118.892z M117.773,19.658
		c0.719,0,1.258-0.16,1.618-0.479c0.359-0.32,0.539-0.839,0.539-1.558c0-0.692-0.18-1.195-0.539-1.508
		c-0.359-0.312-0.899-0.469-1.618-0.469h-3.435v4.014H117.773z"/>
	<path d="M127.958,24.99c0.426,0.412,1.039,0.619,1.838,0.619c0.572,0,1.064-0.144,1.477-0.43s0.666-0.589,0.76-0.909h2.496
		c-0.4,1.238-1.012,2.124-1.838,2.656c-0.826,0.533-1.824,0.799-2.996,0.799c-0.811,0-1.543-0.13-2.196-0.39
		c-0.652-0.259-1.205-0.629-1.657-1.108c-0.453-0.479-0.802-1.051-1.048-1.717c-0.247-0.666-0.37-1.398-0.37-2.196
		c0-0.772,0.126-1.491,0.379-2.157s0.612-1.241,1.079-1.728c0.466-0.486,1.021-0.869,1.667-1.148
		c0.646-0.279,1.361-0.419,2.146-0.419c0.879,0,1.645,0.169,2.297,0.509c0.652,0.34,1.189,0.796,1.607,1.368
		c0.42,0.573,0.723,1.225,0.91,1.957c0.186,0.732,0.252,1.498,0.199,2.296h-7.449C127.299,23.911,127.532,24.577,127.958,24.99z
		 M131.163,19.559c-0.34-0.373-0.855-0.559-1.547-0.559c-0.453,0-0.83,0.077-1.129,0.229c-0.3,0.153-0.54,0.343-0.719,0.569
		c-0.18,0.227-0.306,0.466-0.379,0.719s-0.117,0.479-0.13,0.678h4.613C131.739,20.477,131.503,19.931,131.163,19.559z"/>
	<path d="M143.314,26.148c-0.333,0.559-0.769,0.962-1.309,1.208c-0.539,0.246-1.147,0.369-1.827,0.369
		c-0.771,0-1.451-0.149-2.036-0.449c-0.586-0.3-1.068-0.705-1.448-1.218c-0.379-0.513-0.666-1.102-0.858-1.768
		c-0.193-0.666-0.29-1.358-0.29-2.077c0-0.691,0.097-1.36,0.29-2.006c0.192-0.646,0.479-1.215,0.858-1.708
		c0.38-0.492,0.855-0.889,1.428-1.188c0.572-0.3,1.238-0.449,1.997-0.449c0.612,0,1.194,0.129,1.747,0.389s0.989,0.643,1.309,1.148
		h0.04v-5.192h2.835v14.258h-2.695v-1.317H143.314z M143.194,21.046c-0.08-0.392-0.217-0.739-0.409-1.038
		c-0.193-0.3-0.442-0.542-0.749-0.729c-0.307-0.186-0.692-0.279-1.158-0.279s-0.858,0.093-1.178,0.279
		c-0.32,0.187-0.576,0.433-0.77,0.739c-0.192,0.307-0.333,0.656-0.419,1.048c-0.087,0.394-0.13,0.803-0.13,1.229
		c0,0.399,0.047,0.799,0.14,1.198s0.243,0.756,0.449,1.068s0.466,0.566,0.779,0.759c0.312,0.193,0.688,0.29,1.128,0.29
		c0.466,0,0.855-0.094,1.168-0.28c0.313-0.186,0.562-0.436,0.749-0.749c0.187-0.312,0.319-0.669,0.399-1.068s0.12-0.812,0.12-1.237
		C143.314,21.848,143.274,21.438,143.194,21.046z"/>
	<path d="M157.232,17.012c-0.187-0.299-0.419-0.562-0.698-0.789c-0.28-0.226-0.597-0.402-0.949-0.529
		c-0.353-0.126-0.722-0.189-1.107-0.189c-0.706,0-1.306,0.136-1.798,0.409s-0.892,0.639-1.198,1.098
		c-0.307,0.459-0.529,0.982-0.669,1.568s-0.21,1.191-0.21,1.817c0,0.599,0.07,1.181,0.21,1.748c0.14,0.565,0.362,1.075,0.669,1.527
		c0.307,0.453,0.706,0.815,1.198,1.088c0.492,0.273,1.092,0.41,1.798,0.41c0.958,0,1.707-0.293,2.246-0.879s0.868-1.358,0.988-2.316
		h3.035c-0.079,0.892-0.286,1.697-0.619,2.416c-0.332,0.719-0.771,1.332-1.317,1.837c-0.546,0.507-1.186,0.893-1.917,1.158
		c-0.732,0.267-1.538,0.399-2.416,0.399c-1.092,0-2.074-0.189-2.946-0.568c-0.872-0.38-1.607-0.902-2.206-1.568
		c-0.6-0.665-1.059-1.447-1.378-2.346s-0.479-1.867-0.479-2.906c0-1.065,0.16-2.053,0.479-2.965
		c0.319-0.912,0.778-1.708,1.378-2.386c0.599-0.679,1.334-1.211,2.206-1.598c0.872-0.386,1.854-0.579,2.946-0.579
		c0.785,0,1.527,0.113,2.227,0.339c0.698,0.227,1.324,0.556,1.877,0.989c0.552,0.433,1.008,0.968,1.367,1.607
		c0.36,0.639,0.586,1.371,0.68,2.197h-3.036C157.539,17.642,157.419,17.312,157.232,17.012z"/>
	<path d="M164.881,17.142v1.917h0.04c0.133-0.319,0.312-0.616,0.539-0.889c0.226-0.272,0.485-0.506,0.778-0.699
		s0.605-0.343,0.938-0.449s0.68-0.16,1.039-0.16c0.186,0,0.393,0.033,0.619,0.1v2.636c-0.134-0.026-0.293-0.05-0.479-0.07
		s-0.366-0.03-0.539-0.03c-0.52,0-0.959,0.087-1.318,0.26s-0.648,0.409-0.868,0.709c-0.22,0.299-0.377,0.649-0.47,1.048
		s-0.14,0.832-0.14,1.298v4.652h-2.836V17.142H164.881z"/>
	<path d="M169.254,20.068c0.252-0.672,0.611-1.245,1.078-1.718c0.466-0.472,1.024-0.838,1.677-1.098s1.385-0.389,2.197-0.389
		c0.812,0,1.548,0.129,2.206,0.389c0.659,0.26,1.222,0.626,1.688,1.098c0.466,0.473,0.825,1.045,1.079,1.718
		c0.252,0.672,0.379,1.42,0.379,2.247c0,0.825-0.127,1.57-0.379,2.236c-0.254,0.666-0.613,1.234-1.079,1.707
		s-1.028,0.836-1.688,1.089c-0.658,0.252-1.395,0.379-2.206,0.379c-0.812,0-1.545-0.127-2.197-0.379
		c-0.652-0.253-1.211-0.616-1.677-1.089c-0.467-0.473-0.826-1.041-1.078-1.707c-0.254-0.666-0.38-1.411-0.38-2.236
		C168.874,21.488,169,20.74,169.254,20.068z M171.829,23.522c0.08,0.393,0.217,0.745,0.41,1.058
		c0.192,0.313,0.449,0.563,0.769,0.749c0.319,0.187,0.719,0.28,1.198,0.28s0.882-0.094,1.208-0.28
		c0.326-0.186,0.586-0.436,0.778-0.749c0.193-0.312,0.33-0.665,0.41-1.058c0.079-0.393,0.119-0.796,0.119-1.208
		c0-0.413-0.04-0.819-0.119-1.219c-0.08-0.399-0.217-0.751-0.41-1.058c-0.192-0.306-0.452-0.556-0.778-0.749S174.686,19,174.206,19
		s-0.879,0.097-1.198,0.29s-0.576,0.442-0.769,0.749c-0.193,0.307-0.33,0.659-0.41,1.058c-0.079,0.399-0.119,0.806-0.119,1.219
		C171.71,22.727,171.75,23.13,171.829,23.522z"/>
	<path d="M183.382,24.9c0.126,0.22,0.289,0.399,0.489,0.539c0.199,0.14,0.429,0.243,0.688,0.31s0.529,0.1,0.809,0.1
		c0.2,0,0.41-0.023,0.63-0.07c0.22-0.046,0.419-0.119,0.599-0.22c0.18-0.1,0.329-0.232,0.449-0.399
		c0.12-0.166,0.18-0.376,0.18-0.629c0-0.426-0.283-0.745-0.849-0.958s-1.354-0.426-2.366-0.64c-0.413-0.093-0.815-0.202-1.208-0.329
		c-0.393-0.126-0.742-0.293-1.049-0.499c-0.306-0.206-0.553-0.466-0.738-0.779c-0.187-0.312-0.28-0.695-0.28-1.147
		c0-0.666,0.13-1.211,0.39-1.638c0.26-0.426,0.603-0.762,1.028-1.008c0.426-0.247,0.905-0.419,1.438-0.52
		c0.532-0.1,1.078-0.149,1.637-0.149c0.56,0,1.102,0.053,1.628,0.16c0.525,0.106,0.995,0.286,1.408,0.539
		c0.412,0.253,0.755,0.589,1.028,1.008c0.272,0.419,0.436,0.949,0.489,1.588h-2.696c-0.04-0.546-0.246-0.916-0.619-1.108
		s-0.812-0.29-1.317-0.29c-0.16,0-0.333,0.01-0.52,0.03s-0.356,0.063-0.51,0.13c-0.152,0.067-0.282,0.163-0.389,0.29
		c-0.107,0.126-0.16,0.296-0.16,0.509c0,0.253,0.093,0.459,0.279,0.619s0.43,0.29,0.729,0.389c0.299,0.1,0.642,0.19,1.028,0.27
		c0.386,0.08,0.778,0.167,1.178,0.26c0.413,0.093,0.815,0.206,1.208,0.339c0.393,0.134,0.742,0.31,1.049,0.529
		c0.306,0.22,0.553,0.493,0.739,0.819c0.186,0.326,0.279,0.729,0.279,1.208c0,0.679-0.137,1.248-0.409,1.707
		c-0.273,0.459-0.629,0.829-1.068,1.108s-0.942,0.477-1.508,0.589c-0.566,0.113-1.142,0.17-1.728,0.17
		c-0.599,0-1.185-0.06-1.757-0.18c-0.573-0.12-1.082-0.319-1.528-0.599c-0.446-0.28-0.812-0.649-1.098-1.108
		c-0.287-0.46-0.443-1.035-0.47-1.728h2.696C183.192,24.418,183.255,24.681,183.382,24.9z"/>
	<path d="M193.706,24.9c0.126,0.22,0.289,0.399,0.489,0.539c0.199,0.14,0.429,0.243,0.688,0.31s0.529,0.1,0.809,0.1
		c0.2,0,0.41-0.023,0.63-0.07c0.22-0.046,0.419-0.119,0.599-0.22c0.18-0.1,0.329-0.232,0.449-0.399
		c0.12-0.166,0.18-0.376,0.18-0.629c0-0.426-0.283-0.745-0.849-0.958s-1.354-0.426-2.366-0.64c-0.413-0.093-0.815-0.202-1.208-0.329
		c-0.393-0.126-0.742-0.293-1.049-0.499c-0.306-0.206-0.553-0.466-0.738-0.779c-0.187-0.312-0.28-0.695-0.28-1.147
		c0-0.666,0.13-1.211,0.39-1.638c0.26-0.426,0.603-0.762,1.028-1.008c0.426-0.247,0.905-0.419,1.438-0.52
		c0.532-0.1,1.078-0.149,1.637-0.149c0.56,0,1.102,0.053,1.628,0.16c0.525,0.106,0.995,0.286,1.408,0.539
		c0.412,0.253,0.755,0.589,1.028,1.008c0.272,0.419,0.436,0.949,0.489,1.588h-2.696c-0.04-0.546-0.246-0.916-0.619-1.108
		s-0.812-0.29-1.317-0.29c-0.16,0-0.333,0.01-0.52,0.03s-0.356,0.063-0.51,0.13c-0.152,0.067-0.282,0.163-0.389,0.29
		c-0.107,0.126-0.16,0.296-0.16,0.509c0,0.253,0.093,0.459,0.279,0.619s0.43,0.29,0.729,0.389c0.299,0.1,0.642,0.19,1.028,0.27
		c0.386,0.08,0.778,0.167,1.178,0.26c0.413,0.093,0.815,0.206,1.208,0.339c0.393,0.134,0.742,0.31,1.049,0.529
		c0.306,0.22,0.553,0.493,0.739,0.819c0.186,0.326,0.279,0.729,0.279,1.208c0,0.679-0.137,1.248-0.409,1.707
		c-0.273,0.459-0.629,0.829-1.068,1.108s-0.942,0.477-1.508,0.589c-0.566,0.113-1.142,0.17-1.728,0.17
		c-0.599,0-1.185-0.06-1.757-0.18c-0.573-0.12-1.082-0.319-1.528-0.599c-0.446-0.28-0.812-0.649-1.098-1.108
		c-0.287-0.46-0.443-1.035-0.47-1.728h2.696C193.517,24.418,193.579,24.681,193.706,24.9z"/>
	<path class="st0" d="M209.492,23.951c0.173,0.333,0.402,0.603,0.688,0.809c0.286,0.207,0.622,0.36,1.009,0.46
		c0.386,0.1,0.785,0.149,1.198,0.149c0.279,0,0.579-0.022,0.898-0.069s0.619-0.137,0.898-0.27c0.279-0.134,0.513-0.316,0.699-0.55
		c0.187-0.232,0.279-0.529,0.279-0.889c0-0.386-0.123-0.698-0.369-0.938c-0.247-0.239-0.569-0.439-0.969-0.599
		c-0.399-0.16-0.852-0.3-1.357-0.42c-0.507-0.119-1.019-0.253-1.538-0.399c-0.532-0.133-1.052-0.295-1.558-0.489
		c-0.506-0.193-0.958-0.442-1.357-0.749c-0.399-0.306-0.723-0.689-0.969-1.148c-0.247-0.459-0.369-1.015-0.369-1.667
		c0-0.732,0.156-1.368,0.469-1.907s0.722-0.988,1.229-1.348c0.506-0.359,1.078-0.626,1.717-0.799c0.64-0.173,1.278-0.26,1.917-0.26
		c0.746,0,1.461,0.083,2.147,0.25c0.686,0.167,1.294,0.437,1.827,0.809c0.532,0.373,0.955,0.849,1.268,1.428s0.47,1.281,0.47,2.106
		h-3.036c-0.026-0.426-0.116-0.779-0.27-1.058c-0.153-0.28-0.356-0.5-0.608-0.659c-0.253-0.16-0.543-0.272-0.869-0.339
		c-0.326-0.066-0.683-0.1-1.068-0.1c-0.253,0-0.506,0.027-0.759,0.08c-0.253,0.053-0.482,0.147-0.688,0.28
		c-0.207,0.133-0.377,0.299-0.51,0.499s-0.199,0.453-0.199,0.759c0,0.28,0.053,0.506,0.159,0.679s0.316,0.333,0.629,0.479
		c0.313,0.147,0.746,0.293,1.299,0.439c0.552,0.146,1.274,0.333,2.166,0.559c0.267,0.053,0.636,0.15,1.108,0.29
		s0.941,0.363,1.408,0.669c0.466,0.307,0.868,0.716,1.208,1.228c0.34,0.513,0.509,1.168,0.509,1.967
		c0,0.652-0.126,1.258-0.379,1.817s-0.629,1.042-1.128,1.447c-0.5,0.406-1.119,0.723-1.857,0.949
		c-0.739,0.226-1.595,0.339-2.566,0.339c-0.785,0-1.548-0.097-2.286-0.289c-0.739-0.193-1.392-0.496-1.957-0.908
		c-0.566-0.413-1.016-0.939-1.348-1.578c-0.333-0.639-0.493-1.397-0.479-2.276h3.035C209.232,23.213,209.318,23.619,209.492,23.951z
		"/>
	<path class="st0" d="M222.191,13.208v5.372h0.06c0.359-0.599,0.819-1.035,1.378-1.308c0.56-0.273,1.105-0.409,1.638-0.409
		c0.759,0,1.381,0.103,1.867,0.309c0.485,0.207,0.868,0.493,1.148,0.859c0.279,0.366,0.476,0.812,0.589,1.338
		c0.113,0.526,0.17,1.108,0.17,1.748v6.35h-2.836v-5.831c0-0.852-0.133-1.487-0.399-1.907s-0.738-0.629-1.418-0.629
		c-0.772,0-1.331,0.229-1.677,0.689c-0.347,0.459-0.52,1.215-0.52,2.267v5.411h-2.836V13.208H222.191z"/>
	<path class="st0" d="M230.858,20.068c0.252-0.672,0.611-1.245,1.078-1.718c0.466-0.472,1.024-0.838,1.677-1.098
		s1.385-0.389,2.197-0.389c0.812,0,1.548,0.129,2.206,0.389c0.659,0.26,1.222,0.626,1.688,1.098
		c0.466,0.473,0.825,1.045,1.079,1.718c0.252,0.672,0.379,1.42,0.379,2.247c0,0.825-0.127,1.57-0.379,2.236
		c-0.254,0.666-0.613,1.234-1.079,1.707s-1.028,0.836-1.688,1.089c-0.658,0.252-1.395,0.379-2.206,0.379
		c-0.812,0-1.545-0.127-2.197-0.379c-0.652-0.253-1.211-0.616-1.677-1.089c-0.467-0.473-0.826-1.041-1.078-1.707
		c-0.254-0.666-0.38-1.411-0.38-2.236C230.479,21.488,230.604,20.74,230.858,20.068z M233.434,23.522
		c0.08,0.393,0.217,0.745,0.41,1.058c0.192,0.313,0.449,0.563,0.769,0.749c0.319,0.187,0.719,0.28,1.198,0.28
		s0.882-0.094,1.208-0.28c0.326-0.186,0.586-0.436,0.778-0.749c0.193-0.312,0.33-0.665,0.41-1.058
		c0.079-0.393,0.119-0.796,0.119-1.208c0-0.413-0.04-0.819-0.119-1.219c-0.08-0.399-0.217-0.751-0.41-1.058
		c-0.192-0.306-0.452-0.556-0.778-0.749S236.29,19,235.811,19s-0.879,0.097-1.198,0.29s-0.576,0.442-0.769,0.749
		c-0.193,0.307-0.33,0.659-0.41,1.058c-0.079,0.399-0.119,0.806-0.119,1.219C233.314,22.727,233.354,23.13,233.434,23.522z"/>
	<path class="st0" d="M245.296,17.142v1.318h0.04c0.346-0.559,0.785-0.965,1.317-1.218s1.118-0.379,1.758-0.379
		c0.812,0,1.511,0.153,2.097,0.459c0.586,0.307,1.071,0.712,1.458,1.218c0.386,0.506,0.672,1.095,0.858,1.767
		c0.187,0.672,0.279,1.375,0.279,2.107c0,0.692-0.093,1.357-0.279,1.997c-0.187,0.639-0.47,1.205-0.849,1.697
		c-0.38,0.492-0.853,0.886-1.418,1.178c-0.566,0.293-1.229,0.439-1.987,0.439c-0.639,0-1.228-0.13-1.767-0.39
		c-0.539-0.259-0.982-0.642-1.328-1.147h-0.04v4.892H242.6V17.142H245.296z M248.98,25.329c0.312-0.186,0.565-0.429,0.759-0.729
		c0.192-0.3,0.329-0.649,0.409-1.049s0.119-0.805,0.119-1.218c0-0.412-0.043-0.818-0.129-1.218c-0.087-0.399-0.23-0.755-0.43-1.068
		c-0.2-0.313-0.456-0.566-0.769-0.759c-0.313-0.193-0.696-0.29-1.148-0.29c-0.466,0-0.855,0.097-1.168,0.29
		c-0.313,0.193-0.566,0.442-0.759,0.749c-0.193,0.307-0.33,0.659-0.41,1.058c-0.079,0.399-0.119,0.812-0.119,1.238
		c0,0.413,0.043,0.818,0.13,1.218c0.086,0.399,0.226,0.749,0.419,1.049c0.192,0.3,0.449,0.543,0.769,0.729
		c0.319,0.187,0.706,0.28,1.158,0.28C248.277,25.609,248.667,25.516,248.98,25.329z"/>
</g>
<rect x="13.742" class="st0" width="13.862" height="41.52"/>
<rect y="13.811" class="st0" width="41.053" height="13.655"/>
</svg>
